# xmcd
#
# Track frame offsets: 
#        150
#        28725
#        51995
#        94925
#        117120
#        177845
#        209532
#        288910
#        308165
#
# Disc length: 4389 seconds
#
# Revision: 8
# Processed by: cddbd v1.5.2PL0 Copyright (c) Steve Scherf et al.
# Submitted via: ExactAudioCopy v1.0b3
#
DISCID=7e112309
DTITLE=Cream - Those Were The Days [CD4: Live)
DYEAR=1997
DGENRE=Blues Rock
TTITLE0=White Room
TTITLE1=Politician
TTITLE2=I'm So Glad
TTITLE3=Sitting On Top Of The World
TTITLE4=Steppin' Out
TTITLE5=Traintime
TTITLE6=Toad (Extended Version)
TTITLE7=Deserted Cities Of The Heart
TTITLE8=Sunshine Of Your Love
EXTD=
EXTT0=
EXTT1=
EXTT2=
EXTT3=
EXTT4=
EXTT5=
EXTT6=
EXTT7=
EXTT8=
PLAYORDER=
